<svg width="790" height="397" viewBox="0 0 790 397" fill="none" xmlns="http://www.w3.org/2000/svg">
<path d="M255.488 123.232C248.592 130.141 221.445 131.283 220.948 128.638C220.948 128.638 242.991 176.117 295.735 176.117C377.058 179.805 465.667 0.64736 528.902 50.2921C537.093 41.8114 549.201 38.8056 563.402 38.9812C540.298 10.8847 502.778 7.85936 500.781 9.16708C408.062 9.16708 330.129 204.252 255.498 123.232H255.488Z" fill="url(#paint0_linear_269_280)"/>
<path d="M231.283 119.504C251.322 119.504 267.566 103.228 267.566 83.151C267.566 63.074 251.322 46.7983 231.283 46.7983C211.244 46.7983 195 63.074 195 83.151C195 103.228 211.244 119.504 231.283 119.504Z" fill="#5CAEFF"/>
<path d="M558.717 120.421C578.755 120.421 595 104.145 595 84.0683C595 63.9913 578.755 47.7156 558.717 47.7156C538.678 47.7156 522.434 63.9913 522.434 84.0683C522.434 104.145 538.678 120.421 558.717 120.421Z" fill="#1379DF"/>
<path d="M361.698 76.5148C361.698 76.5148 303.07 13.2073 264.615 51.7364C256.423 43.2557 246.654 37.9077 232.452 38.0834C255.556 9.98684 293.077 6.96151 295.073 8.26923C350.302 3.86786 385.104 54.8886 385.104 54.8886L361.698 76.5148Z" fill="url(#paint1_linear_269_280)"/>
<path d="M439.514 107.09C439.514 107.09 499.933 174.36 538.291 125.232C548.373 131.332 561.941 131.234 575.626 127.428C560.46 160.511 523.554 173.491 521.284 172.74C469.017 191.145 415.124 129.487 415.124 129.487L439.523 107.1L439.514 107.09Z" fill="#1379DF"/>
<path d="M32.5 275.923H15.75C15.25 273.756 14.8333 271.506 14.5 269.173C14.3333 266.673 14.25 264.339 14.25 262.173C14.25 257.673 14.75 253.256 15.75 248.923H67.25V378.173C61.25 379.173 55.4167 379.673 49.75 379.673C44.25 379.673 38.5 379.173 32.5 378.173V275.923ZM27.25 227.173C26.25 221.506 25.75 215.923 25.75 210.423C25.75 205.089 26.25 199.506 27.25 193.673C30.0833 193.173 33.0833 192.839 36.25 192.673C39.5833 192.339 42.5833 192.173 45.25 192.173C48.0833 192.173 51.1667 192.339 54.5 192.673C57.8333 192.839 60.9167 193.173 63.75 193.673C64.25 196.506 64.5833 199.339 64.75 202.173C64.9167 204.839 65 207.589 65 210.423C65 213.089 64.9167 215.839 64.75 218.673C64.5833 221.506 64.25 224.339 63.75 227.173C60.9167 227.673 57.8333 228.006 54.5 228.173C51.3333 228.339 48.3333 228.423 45.5 228.423C42.8333 228.423 39.8333 228.339 36.5 228.173C33.1667 228.006 30.0833 227.673 27.25 227.173ZM98.4102 195.423C104.41 194.423 110.327 193.923 116.16 193.923C121.827 193.923 127.66 194.423 133.66 195.423V326.673C133.66 331.839 133.91 336.006 134.41 339.173C135.077 342.339 135.993 344.839 137.16 346.673C138.493 348.339 140.16 349.506 142.16 350.173C144.16 350.839 146.66 351.173 149.66 351.173C150.993 351.173 152.41 351.089 153.91 350.923C155.577 350.756 157.16 350.506 158.66 350.173C160.493 357.006 161.41 363.673 161.41 370.173C161.41 371.506 161.41 372.756 161.41 373.923C161.41 374.923 161.243 376.089 160.91 377.423C158.243 378.256 154.993 378.839 151.16 379.173C147.493 379.506 144.077 379.673 140.91 379.673C128.077 379.673 117.743 376.173 109.91 369.173C102.243 362.006 98.4102 350.423 98.4102 334.423V195.423ZM176.715 195.423C182.715 194.423 188.632 193.923 194.465 193.923C200.132 193.923 205.965 194.423 211.965 195.423V326.673C211.965 331.839 212.215 336.006 212.715 339.173C213.382 342.339 214.298 344.839 215.465 346.673C216.798 348.339 218.465 349.506 220.465 350.173C222.465 350.839 224.965 351.173 227.965 351.173C229.298 351.173 230.715 351.089 232.215 350.923C233.882 350.756 235.465 350.506 236.965 350.173C238.798 357.006 239.715 363.673 239.715 370.173C239.715 371.506 239.715 372.756 239.715 373.923C239.715 374.923 239.548 376.089 239.215 377.423C236.548 378.256 233.298 378.839 229.465 379.173C225.798 379.506 222.382 379.673 219.215 379.673C206.382 379.673 196.048 376.173 188.215 369.173C180.548 362.006 176.715 350.423 176.715 334.423V195.423ZM263.02 275.923H246.27C245.77 273.756 245.353 271.506 245.02 269.173C244.853 266.673 244.77 264.339 244.77 262.173C244.77 257.673 245.27 253.256 246.27 248.923H297.77V378.173C291.77 379.173 285.936 379.673 280.27 379.673C274.77 379.673 269.02 379.173 263.02 378.173V275.923ZM257.77 227.173C256.77 221.506 256.27 215.923 256.27 210.423C256.27 205.089 256.77 199.506 257.77 193.673C260.603 193.173 263.603 192.839 266.77 192.673C270.103 192.339 273.103 192.173 275.77 192.173C278.603 192.173 281.686 192.339 285.02 192.673C288.353 192.839 291.436 193.173 294.27 193.673C294.77 196.506 295.103 199.339 295.27 202.173C295.436 204.839 295.52 207.589 295.52 210.423C295.52 213.089 295.436 215.839 295.27 218.673C295.103 221.506 294.77 224.339 294.27 227.173C291.436 227.673 288.353 228.006 285.02 228.173C281.853 228.339 278.853 228.423 276.02 228.423C273.353 228.423 270.353 228.339 267.02 228.173C263.686 228.006 260.603 227.673 257.77 227.173Z" fill="#1379DF"/>
<path d="M405.081 378.173C442.679 378.173 465.994 358.764 465.994 327.758C465.994 304.442 448.416 286.986 424.49 285.155V284.179C443.167 281.371 457.571 265.258 457.571 245.971C457.571 218.993 436.819 202.025 403.738 202.025H327.078V378.173H405.081ZM363.943 229.491H394.217C411.429 229.491 421.316 237.548 421.316 251.708C421.316 266.6 410.086 275.267 390.433 275.267H363.943V229.491ZM363.943 350.707V299.559H394.827C416.556 299.559 428.396 308.349 428.396 324.828C428.396 341.674 416.922 350.707 395.682 350.707H363.943ZM479.968 255.004V255.614H514.147V255.004C514.147 238.768 526.721 226.806 543.811 226.806C560.168 226.806 571.765 237.304 571.765 250.487C571.765 262.694 566.271 271.605 548.449 289.428L482.043 353.392V378.173H610.095V348.876H530.627V348.143L573.596 306.762C593.005 287.474 607.653 270.995 607.653 249.022C607.653 219.603 582.141 198.119 545.031 198.119C506.579 198.119 479.968 221.679 479.968 255.004ZM710.372 378.173C747.97 378.173 771.285 358.764 771.285 327.758C771.285 304.442 753.707 286.986 729.781 285.155V284.179C748.458 281.371 762.862 265.258 762.862 245.971C762.862 218.993 742.11 202.025 709.029 202.025H632.369V378.173H710.372ZM669.234 229.491H699.508C716.72 229.491 726.607 237.548 726.607 251.708C726.607 266.6 715.377 275.267 695.724 275.267H669.234V229.491ZM669.234 350.707V299.559H700.118C721.847 299.559 733.688 308.349 733.688 324.828C733.688 341.674 722.213 350.707 700.973 350.707H669.234Z" fill="#5CAEFF"/>
<defs>
<linearGradient id="paint0_linear_269_280" x1="220.987" y1="129.989" x2="563.45" y2="39.0677" gradientUnits="userSpaceOnUse">
<stop stop-color="#5C9DFF"/>
<stop offset="1" stop-color="#1363DF"/>
</linearGradient>
<linearGradient id="paint1_linear_269_280" x1="385.094" y1="42.2603" x2="232.442" y2="42.2603" gradientUnits="userSpaceOnUse">
<stop stop-color="#1379DF"/>
<stop offset="1" stop-color="#5CADFF"/>
</linearGradient>
</defs>
</svg>
