<svg width="842" height="206" viewBox="0 0 842 206" fill="none" xmlns="http://www.w3.org/2000/svg">
<path d="M76.0488 137.636C68.2906 145.409 37.7508 146.693 37.1919 143.718C37.1919 143.718 61.9898 197.131 121.327 197.131C212.815 201.281 312.5 -0.271784 383.639 55.5785C392.855 46.0377 406.476 42.6562 422.453 42.8538C396.46 11.2452 354.25 7.84171 352.004 9.3129C247.695 9.3129 160.02 228.784 76.0598 137.636H76.0488Z" fill="#F5F9FF"/>
<path d="M48.8185 133.442C71.3619 133.442 89.637 115.132 89.637 92.5449C89.637 69.9582 71.3619 51.6481 48.8185 51.6481C26.2751 51.6481 8 69.9582 8 92.5449C8 115.132 26.2751 133.442 48.8185 133.442Z" fill="#F5F9FF"/>
<path d="M417.182 134.474C439.725 134.474 458 116.164 458 93.5769C458 70.9902 439.725 52.6801 417.182 52.6801C394.638 52.6801 376.363 70.9902 376.363 93.5769C376.363 116.164 394.638 134.474 417.182 134.474Z" fill="#F5F9FF"/>
<path d="M195.535 85.0792C195.535 85.0792 129.579 13.8583 86.3166 57.2034C77.1009 47.6627 66.11 41.6462 50.1333 41.8438C76.1256 10.2352 118.336 6.83169 120.582 8.30288C182.714 3.35134 221.867 60.7497 221.867 60.7497L195.535 85.0792Z" fill="#F5F9FF"/>
<path d="M283.078 119.476C283.078 119.476 351.05 195.155 394.203 139.886C405.544 146.748 420.809 146.638 436.205 142.356C419.143 179.575 377.623 194.177 375.07 193.332C316.27 214.039 255.639 144.673 255.639 144.673L283.089 119.487L283.078 119.476Z" fill="#F5F9FF"/>
<path d="M499.79 93.2072H484.38C483.92 91.2139 483.537 89.1439 483.23 86.9972C483.077 84.6972 483 82.5506 483 80.5572C483 76.4172 483.46 72.3539 484.38 68.3672H531.76V187.277C526.24 188.197 520.873 188.657 515.66 188.657C510.6 188.657 505.31 188.197 499.79 187.277V93.2072ZM494.96 48.3572C494.04 43.1439 493.58 38.0072 493.58 32.9472C493.58 28.0406 494.04 22.9039 494.96 17.5372C497.567 17.0772 500.327 16.7705 503.24 16.6172C506.307 16.3106 509.067 16.1572 511.52 16.1572C514.127 16.1572 516.963 16.3106 520.03 16.6172C523.097 16.7705 525.933 17.0772 528.54 17.5372C529 20.1439 529.307 22.7506 529.46 25.3572C529.613 27.8106 529.69 30.3406 529.69 32.9472C529.69 35.4006 529.613 37.9306 529.46 40.5372C529.307 43.1439 529 45.7506 528.54 48.3572C525.933 48.8172 523.097 49.1239 520.03 49.2772C517.117 49.4306 514.357 49.5072 511.75 49.5072C509.297 49.5072 506.537 49.4306 503.47 49.2772C500.403 49.1239 497.567 48.8172 494.96 48.3572Z" fill="#F5F9FF"/>
<path d="M564.567 21.9072C571.007 21.1406 577.754 20.5272 584.807 20.0672C591.861 19.4539 599.681 19.1472 608.267 19.1472C637.247 19.1472 659.251 26.3539 674.277 40.7672C689.457 55.1806 697.047 76.8006 697.047 105.627C697.047 134.607 689.381 155.921 674.047 169.567C658.714 183.214 635.944 190.037 605.737 190.037C597.917 190.037 590.711 189.731 584.117 189.117C577.524 188.657 571.007 188.044 564.567 187.277V21.9072ZM598.377 160.597C599.757 160.751 601.521 160.904 603.667 161.057C605.814 161.211 608.421 161.287 611.487 161.287C618.541 161.287 625.057 160.521 631.037 158.987C637.171 157.301 642.461 154.311 646.907 150.017C651.354 145.724 654.881 139.974 657.487 132.767C660.094 125.561 661.397 116.284 661.397 104.937C661.397 93.8972 660.094 84.6972 657.487 77.3372C654.881 69.9772 651.354 64.1506 646.907 59.8572C642.461 55.5639 637.324 52.5739 631.497 50.8872C625.824 49.0472 619.767 48.1272 613.327 48.1272C611.181 48.1272 608.651 48.2039 605.737 48.3572C602.977 48.3572 600.524 48.5106 598.377 48.8172V160.597Z" fill="#F5F9FF"/>
<path d="M755.052 110.687C749.839 108.694 745.162 106.547 741.022 104.247C736.882 101.794 733.356 98.9572 730.442 95.7372C727.529 92.3639 725.229 88.3772 723.542 83.7772C722.009 79.1772 721.242 73.6572 721.242 67.2172C721.242 59.3972 722.546 52.4972 725.152 46.5172C727.912 40.5372 731.746 35.5539 736.652 31.5672C741.559 27.4272 747.462 24.3606 754.362 22.3672C761.262 20.2206 769.006 19.1472 777.592 19.1472C785.412 19.1472 792.696 19.8372 799.442 21.2172C806.342 22.5972 813.549 24.5906 821.062 27.1972C820.142 36.0906 817.689 44.8306 813.702 53.4172C811.402 52.4972 809.026 51.5772 806.572 50.6572C804.272 49.7372 801.742 48.9706 798.982 48.3572C796.376 47.7439 793.386 47.2839 790.012 46.9772C786.639 46.5172 782.806 46.2872 778.512 46.2872C775.906 46.2872 773.222 46.5172 770.462 46.9772C767.856 47.4372 765.479 48.2805 763.332 49.5072C761.186 50.7339 759.422 52.5739 758.042 55.0272C756.662 57.3272 755.972 60.3939 755.972 64.2272C755.972 67.2939 756.509 69.9006 757.582 72.0472C758.656 74.0406 760.112 75.8039 761.952 77.3372C763.792 78.7172 765.862 79.9439 768.162 81.0172C770.462 81.9372 772.762 82.8572 775.062 83.7772L788.862 89.0672C794.689 91.3672 799.979 93.7439 804.732 96.1972C809.486 98.6506 813.472 101.717 816.692 105.397C820.066 108.924 822.672 113.294 824.512 118.507C826.352 123.567 827.272 129.854 827.272 137.367C827.272 145.187 825.816 152.317 822.902 158.757C820.142 165.197 816.079 170.717 810.712 175.317C805.346 179.917 798.676 183.521 790.702 186.127C782.882 188.734 773.836 190.037 763.562 190.037C758.502 190.037 753.979 189.884 749.992 189.577C746.006 189.271 742.172 188.734 738.492 187.967C734.966 187.354 731.439 186.511 727.912 185.437C724.386 184.364 720.706 183.061 716.872 181.527C717.332 177.081 718.176 172.481 719.402 167.727C720.629 162.821 722.086 157.914 723.772 153.007C730.212 155.614 736.269 157.607 741.942 158.987C747.616 160.214 753.672 160.827 760.112 160.827C769.772 160.827 777.362 159.064 782.882 155.537C788.402 151.857 791.162 146.337 791.162 138.977C791.162 135.297 790.472 132.231 789.092 129.777C787.866 127.324 786.179 125.254 784.032 123.567C782.039 121.881 779.739 120.501 777.132 119.427C774.526 118.201 771.842 117.051 769.082 115.977L755.052 110.687Z" fill="#F5F9FF"/>
<path d="M494.415 48.2267C493.469 42.8793 493 37.595 493 32.4011C493 27.2071 493.469 22.0945 494.415 16.5754C497.084 16.1057 499.951 15.7444 503.016 15.5095C506.082 15.2747 508.867 15.1572 511.383 15.1572C514.051 15.1572 516.963 15.2747 520.101 15.5095C523.238 15.7444 526.15 16.0967 528.819 16.5754C529.288 19.2582 529.603 21.8868 529.766 24.4882C529.919 27.0897 530 29.7273 530 32.4011C530 34.9212 529.919 37.5227 529.766 40.1965C529.603 42.8792 529.297 45.553 528.819 48.2267C526.141 48.6964 523.283 49.0126 520.218 49.1752C517.153 49.3378 514.286 49.41 511.617 49.41C509.102 49.41 506.271 49.3287 503.134 49.1752C499.987 49.0216 497.084 48.7055 494.415 48.2267Z" fill="#F5F9FF"/>
</svg>
