<svg width="451" height="190" viewBox="0 0 451 190" fill="none" xmlns="http://www.w3.org/2000/svg">
<path d="M68.5484 129.636C60.7901 137.409 30.2503 138.693 29.6914 135.718C29.6914 135.718 54.4893 189.131 113.827 189.131C205.315 193.281 305 -8.27172 376.139 47.5786C385.355 38.0378 398.975 34.6563 414.952 34.8539C388.96 3.24527 346.75 -0.158226 344.503 1.31296C240.194 1.31296 152.519 220.784 68.5593 129.636H68.5484Z" fill="white"/>
<path d="M41.3185 125.442C63.8619 125.442 82.137 107.132 82.137 84.5449C82.137 61.9582 63.8619 43.6481 41.3185 43.6481C18.7751 43.6481 0.5 61.9582 0.5 84.5449C0.5 107.132 18.7751 125.442 41.3185 125.442Z" fill="white"/>
<path d="M409.682 126.474C432.225 126.474 450.5 108.164 450.5 85.5768C450.5 62.9901 432.225 44.68 409.682 44.68C387.138 44.68 368.863 62.9901 368.863 85.5768C368.863 108.164 387.138 126.474 409.682 126.474Z" fill="white"/>
<path d="M188.035 77.0792C188.035 77.0792 122.079 5.85826 78.8171 49.2034C69.6014 39.6627 58.6105 33.6462 42.6338 33.8438C68.6261 2.23519 110.836 -1.16831 113.083 0.302883C175.214 -4.64866 214.367 52.7497 214.367 52.7497L188.035 77.0792Z" fill="white"/>
<path d="M275.577 111.476C275.577 111.476 343.55 187.155 386.702 131.886C398.044 138.748 413.308 138.638 428.704 134.356C411.643 171.575 370.123 186.177 367.57 185.332C308.769 206.039 248.139 136.673 248.139 136.673L275.588 111.487L275.577 111.476Z" fill="white"/>
</svg>
